#!OML:ASF F:\VICON\USERDATA\INSTALL\rory3\rory3.ASF
:FULLY-SPECIFIED
:DEGREES
507
root 0.144495 15.1279 -32.476 -148.777 -9.5847 -183.484
lowerback -19.0765 0.1983 0.186178
upperback -17.181 -4.16326 -1.07908
thorax -8.35517 -4.07068 -1.4697
lowerneck -4.70581 4.87462 -0.31287
upperneck 37.7827 0.23907 4.58163
head 13.5305 -1.41415 1.43137
rclavicle 4.96962e-017 3.77691e-015
rhumerus -34.1835 -45.2084 26.0958
rradius 15.7411
rwrist 36.7426
rhand 5.1604 1.24483
rfingers 7.12502
rthumb 30.523 -26.2465
lclavicle 4.96962e-017 3.77691e-015
lhumerus 55.0824 -11.2045 24.0098
lradius 33.3907
lwrist -11.8065
lhand 2.67374 23.5001
lfingers 7.12502
lthumb 28.1487 51.4071
rfemur -189.493 -189.268 -147.76
rtibia 27.8548
rfoot -33.2579 -30.7328
rtoes -0.905294
lfemur -69.2079 9.56115 -46.678
ltibia 56.5171
lfoot -29.7415 20.4118
ltoes 19.0096
508
root 0.126323 15.1158 -32.4999 -148.809 -9.99689 -183.266
lowerback -18.9597 0.113498 0.895745
upperback -16.7813 -4.17326 -1.09822
thorax -7.97217 -4.06739 -1.9175
lowerneck -6.77012 4.78605 -0.286822
upperneck 37.9874 0.371144 4.61899
head 14.0768 -1.21512 1.50342
rclavicle -1.02126e-014 1.59028e-015
rhumerus -33.4116 -42.1647 24.5241
rradius 16.0528
rwrist 32.9225
rhand 6.14741 3.023
rfingers 7.12502
rthumb 31.4638 -24.289
lclavicle -1.02126e-014 1.59028e-015
lhumerus 56.5732 -6.26108 34.1125
lradius 32.2066
lwrist -21.8791
lhand 5.99495 21.0731
lfingers 7.12502
lthumb 31.3185 48.4134
rfemur -189.257 -188.576 -147.441
rtibia 27.5802
rfoot -32.8657 -30.6244
rtoes -3.42592
lfemur -69.2134 9.34932 -46.2916
ltibia 56.8245
lfoot -29.9712 20.4753
ltoes 18.4272
509
root 0.0807512 15.0962 -32.5021 -148.851 -11.4828 -182.192
lowerback -18.803 0.3572 3.09951
upperback -17.5947 -4.44904 -1.07507
thorax -9.20723 -4.59483 -3.04893
lowerneck -3.82541 5.115 0.337894
upperneck 37.1291 0.606777 4.54936
head 13.0466 -1.15969 1.33487
rclavicle 2.55935e-014 2.13694e-014
rhumerus -31.211 -38.8618 21.8362
rradius 16.1875
rwrist 28.3989
rhand 3.67545 -0.123982
rfingers 7.12502
rthumb 29.1058 -27.8695
lclavicle 2.55935e-014 2.13694e-014
lhumerus 55.9477 -7.18339 33.4643
lradius 32.9046
lwrist -20.4825
lhand 5.95533 21.3018
lfingers 7.12502
lthumb 31.2808 48.6494
rfemur -189.157 -186.476 -146.008
rtibia 27.1059
rfoot -31.3218 -29.8142
rtoes -2.74796
lfemur -69.5983 8.60172 -44.7893
ltibia 57.4683
lfoot -29.7841 20.7497
ltoes 17.9173
510
root 0.140367 15.1042 -32.5477 -148.638 -9.91128 -183.672
lowerback -18.3237 0.233168 0.323833
upperback -18.1235 -4.54636 -1.39693
thorax -9.97074 -4.46473 -1.77214
lowerneck -2.4652 5.21302 0.527812
upperneck 36.5601 0.736413 4.51079
head 12.5112 -1.122 1.27759
rclavicle 4.2366e-015 -1.06847e-014
rhumerus -30.1064 -36.1004 20.5567
rradius 16.3155
rwrist 26.0349
rhand 2.92171 -1.71605
rfingers 7.12502
rthumb 28.3857 -29.5838
lclavicle 4.2366e-015 -1.06847e-014
lhumerus 56.1256 -7.77324 33.5998
lradius 33.2654
lwrist -19.7735
lhand 5.58554 21.7644
lfingers 7.12502
lthumb 30.9283 49.1795
rfemur -188.958 -189.105 -147.688
rtibia 27.1364
rfoot -32.8005 -31.1356
rtoes -2.38573
lfemur -69.3593 9.51691 -46.8146
ltibia 57.2673
lfoot -29.8493 20.329
ltoes 17.916
511
root 0.0796862 15.0906 -32.515 -148.875 -11.5986 -182.329
lowerback -17.6978 0.28244 3.29738
upperback -17.8003 -4.5494 -1.22461
thorax -10.0866 -4.69144 -3.22273
lowerneck -4.50952 5.27978 0.726789
upperneck 36.7689 1.12532 4.38997
head 13.0252 -0.796316 1.28567
rclavicle -1.22377e-014 -2.6662e-014
rhumerus -30.2575 -35.986 20.5026
rradius 16.215
rwrist 26.1254
rhand 3.82826 -1.19937
rfingers 7.12502
rthumb 29.2517 -28.9196
lclavicle -1.22377e-014 -2.6662e-014
lhumerus 57.4132 -6.52712 33.9626
lradius 33.6095
lwrist -19.9792
lhand 5.2245 21.9837
lfingers 7.12502
lthumb 30.5841 49.4636
rfemur -189.062 -186.392 -146.019
rtibia 27.0313
rfoot -30.9712 -29.8622
rtoes -1.50426
lfemur -69.4916 8.65796 -44.9673
ltibia 57.6466
lfoot -29.7346 20.7158
ltoes 17.4963
